{
	"asset":{
		"version":"2.0",
		"generator":"Maxon Cinema 4D 2024.5.1 (#200000219)",
		"copyright":""
	},
	"scenes":[{
		"nodes":[0]
	}],
	"nodes":[{
		"name":"Scene 0",
		"translation":[0.0,
		-2.283132791519165,
		0.0],
		"rotation":[0.0,
		0.0,
		0.0,
		-1.0],
		"scale":[1.0,
		1.0,
		1.0],
		"children":[1]
	},
	{
		"name":"Bust",
		"mesh":0,
		"translation":[0.0,
		0.06558182090520859,
		0.0],
		"rotation":[2.5729822716868968e-9,
		-0.13052618503570558,
		1.9543740847893788e-8,
		-0.9914448857307434],
		"scale":[1.0,
		1.0,
		1.0]
	}],
	"meshes":[{
		"name":"Bust",
		"primitives":[{
			"attributes":{
				"POSITION":1
			},
			"indices":0
		}]
	}],
	"accessors":[{
		"bufferView":0,
		"type":"SCALAR",
		"max":[37257],
		"componentType":5123,
		"count":223536,
		"byteOffset":0,
		"min":[0]
	},
	{
		"bufferView":1,
		"type":"VEC3",
		"max":[1.813959002494812,
		5.698930263519287,
		1.829801321029663],
		"componentType":5126,
		"count":37258,
		"byteOffset":0,
		"min":[-2.099740982055664,
		-0.01195311639457941,
		-2.7119648456573488]
	}],
	"bufferViews":[{
		"buffer":0,
		"byteOffset":0,
		"byteLength":447072,
		"target":34963
	},
	{
		"buffer":0,
		"byteOffset":447072,
		"byteLength":447096,
		"target":34962
	}],
	"buffers":[{
		"uri":"data:application/octet-stream;base64,",
		"byteLength":894168
	}]
}