{
	"asset":{
		"version":"2.0",
		"generator":""
	},
	"scenes":[{
		"nodes":[0]
	}],
	"nodes":[{
		"name":"Null",
		"children":[1]
	},
	{
		"name":"Karolin_Rehfues_Bust_model.1",
		"mesh":0
	}],
	"meshes":[{
		"name":"Karolin_Rehfues_Bust_model.1",
		"primitives":[{
			"attributes":{
				"POSITION":1
			},
			"indices":0
		}]
	}],
	"accessors":[{
		"bufferView":0,
		"type":"SCALAR",
		"max":[21507],
		"componentType":5123,
		"count":129036,
		"byteOffset":0,
		"min":[0]
	},
	{
		"bufferView":1,
		"type":"VEC3",
		"max":[4.872054576873779,
		17.766752243041993,
		4.038238048553467],
		"componentType":5126,
		"count":21508,
		"byteOffset":0,
		"min":[-4.872054576873779,
		0.0,
		-4.038238048553467]
	}],
	"bufferViews":[{
		"buffer":0,
		"byteOffset":0,
		"byteLength":258072,
		"target":34963
	},
	{
		"buffer":0,
		"byteOffset":258072,
		"byteLength":258096,
		"target":34962
	}],
	"buffers":[{
		"uri":"data:application/octet-stream;base64,",
		"byteLength":516168
	}]
}