{
	"asset":{
		"version":"2.0",
		"generator":"Created using the official Cinema 4D glTF Exporter 1.000x284978"
	},
	"scenes":[{
		"nodes":[0]
	}],
	"nodes":[{
		"name":"Null",
		"mesh":0
	}],
	"meshes":[{
		"primitives":[{
			"attributes":{
				"POSITION":1
			},
			"indices":0
		}],
		"name":"Null"
	}],
	"accessors":[{
		"bufferView":0,
		"type":"SCALAR",
		"componentType":5123,
		"count":2790,
		"byteOffset":0,
		"min":[0],
		"max":[466]
	},
	{
		"bufferView":1,
		"type":"VEC3",
		"componentType":5126,
		"count":467,
		"byteOffset":0,
		"min":[-11.331402778625489,
		-8.530496597290039,
		-9.100177764892579],
		"max":[11.389840126037598,
		11.615227699279786,
		9.100177764892579]
	}],
	"bufferViews":[{
		"buffer":0,
		"byteOffset":0,
		"target":34963,
		"byteLength":5580
	},
	{
		"buffer":0,
		"byteOffset":5580,
		"target":34962,
		"byteLength":5604
	}],
	"buffers":[{
		"uri":"data:application/octet-stream;base64,",
		"byteLength":11184
	}]
}